<!-- This is an SVG-based music player icon that will serve as a placeholder -->
<!-- We'll convert this to a PNG file later or use it directly -->
<svg width="80" height="80" viewBox="0 0 80 80" fill="none" xmlns="http://www.w3.org/2000/svg">
  <!-- Background circle with subtle gradient -->
  <defs>
    <linearGradient id="bg-gradient" x1="0%" y1="0%" x2="100%" y2="100%">
      <stop offset="0%" style="stop-color:#4F46E5;stop-opacity:0.1" />
      <stop offset="100%" style="stop-color:#7C3AED;stop-opacity:0.2" />
    </linearGradient>
    <filter id="glow" x="-50%" y="-50%" width="200%" height="200%">
      <feGaussianBlur stdDeviation="2" result="coloredBlur"/>
      <feMerge> 
        <feMergeNode in="coloredBlur"/>
        <feMergeNode in="SourceGraphic"/>
      </feMerge>
    </filter>
  </defs>
  
  <!-- Background circle -->
  <circle cx="40" cy="40" r="38" fill="url(#bg-gradient)" stroke="rgba(139, 92, 246, 0.3)" stroke-width="2"/>
  
  <!-- Main music note -->
  <g filter="url(#glow)">
    <!-- Note stem -->
    <rect x="35" y="15" width="3" height="35" fill="#8B5CF6" rx="1.5"/>
    
    <!-- Note head -->
    <ellipse cx="32" cy="48" rx="6" ry="4" fill="#8B5CF6"/>
    
    <!-- Musical staff lines (subtle background) -->
    <line x1="20" y1="25" x2="60" y2="25" stroke="rgba(139, 92, 246, 0.2)" stroke-width="1"/>
    <line x1="20" y1="35" x2="60" y2="35" stroke="rgba(139, 92, 246, 0.2)" stroke-width="1"/>
    <line x1="20" y1="45" x2="60" y2="45" stroke="rgba(139, 92, 246, 0.2)" stroke-width="1"/>
    <line x1="20" y1="55" x2="60" y2="55" stroke="rgba(139, 92, 246, 0.2)" stroke-width="1"/>
    
    <!-- Additional decorative notes -->
    <g opacity="0.6">
      <!-- Second smaller note -->
      <ellipse cx="50" cy="38" rx="4" ry="3" fill="#A78BFA"/>
      <rect x="52" y="20" width="2" height="18" fill="#A78BFA" rx="1"/>
      
      <!-- Third tiny note -->
      <ellipse cx="56" cy="32" rx="3" ry="2" fill="#C4B5FD"/>
      <rect x="57" y="18" width="1.5" height="14" fill="#C4B5FD" rx="0.75"/>
    </g>
  </g>
  
  <!-- Subtle shine effect -->
  <ellipse cx="30" cy="25" rx="8" ry="4" fill="rgba(255,255,255,0.1)" transform="rotate(-20 30 25)"/>
</svg>